# xmcd
# Track frame offsets:
# 150
# 12888
# 24166
# 34992
# 46817
# 58148
# 68343
# 82060
# 93447
# 103451
# 114775
# 124225
# 136942
# 149941
# 161502
# 171468
#
# Disc length: 2442 seconds
# Revision: 0
# Processed by: cddbd v1.5.1PL2 Copyright (c) Steve Scherf et al.
# Submitted via: VisiTrax 2.9.10.228 - For more info visit www.synapsa.com
#
DISCID=de098810
DTITLE=Various Artist - The Original Country Legends (Vol 1)
DYEAR=1900
DGENRE=
TTITLE0=Stuart Hamblen - Ace In The Hole
TTITLE1=Patsy Cline - Stop The World (And Let Me Off)
TTITLE2=Carl Belew - Am I That Easy To Forget
TTITLE3=Hank Locklin - Golden Wristwatch
TTITLE4=Ferlin Husky - Flowers Speak Louder
TTITLE5=Jan Howard - I Wish I Could Fall In Love Again
TTITLE6=Maddox Brothers and Rose - Philadelphia Lawyer
TTITLE7=Johhny Horton - All For The Love Of A Girl
TTITLE8=Marvin Rainwater - I Gotta Go Get My Baby
TTITLE9=Floyd Tillman - I'm Thinking Tonight Of My Blue Eyes
TTITLE10=George Jones - Maybe Little Baby
TTITLE11=Jimmy Dean - Bumming Around
TTITLE12=Webb Pierce - New Panhandle Rag
TTITLE13=Floyd Cramer - Snow Deer
TTITLE14=Buck Owens - Rhythm And Booze
TTITLE15=Moon Mullican - Jole Blon
EXTD=BRCD 177
EXTT0=
EXTT1=
EXTT2=
EXTT3=
EXTT4=
EXTT5=
EXTT6=
EXTT7=
EXTT8=
EXTT9=
EXTT10=
EXTT11=
EXTT12=
EXTT13=
EXTT14=
EXTT15=
PLAYORDER=
